<svg xmlns="http://www.w3.org/2000/svg" xmlns:xlink="http://www.w3.org/1999/xlink" version="1.1" x="0px" y="0px" viewBox="0 0 100 125" enable-background="new 0 0 100 100" xml:space="preserve"><g><g><path fill="none" d="M64.504,23.335c0-7.998-6.507-14.506-14.506-14.506c-7.997,0-14.503,6.508-14.503,14.506    c0,8,6.506,14.508,14.503,14.508C57.996,37.843,64.504,31.335,64.504,23.335z"/><path fill="none" d="M49.998,45.319c-12.609,0-23.994,19.565-26.892,45.851h53.787C73.992,64.884,62.606,45.319,49.998,45.319z"/><path d="M51.678,41.588c9.325-0.852,16.656-8.708,16.656-18.252C68.333,13.225,60.108,5,49.998,5    c-10.109,0-18.333,8.225-18.333,18.335c0,9.544,7.33,17.4,16.653,18.252C33.87,43.116,21.716,64.222,19.081,92.91    c-0.049,0.536,0.129,1.068,0.492,1.465C19.936,94.774,20.45,95,20.988,95h58.023c0.539,0,1.052-0.226,1.415-0.625    c0.363-0.397,0.541-0.929,0.492-1.466C78.28,64.221,66.124,43.116,51.678,41.588z M35.495,23.335    c0-7.998,6.506-14.506,14.503-14.506c7.999,0,14.506,6.508,14.506,14.506c0,8-6.507,14.508-14.506,14.508    C42.001,37.843,35.495,31.335,35.495,23.335z M23.106,91.17c2.898-26.286,14.283-45.851,26.892-45.851    c12.608,0,23.994,19.565,26.895,45.851H23.106z"/></g></g><text x="0" y="115" fill="#000000" font-size="5px" font-weight="bold" font-family="'Helvetica Neue', Helvetica, Arial-Unicode, Arial, Sans-serif">Created by James Smith</text><text x="0" y="120" fill="#000000" font-size="5px" font-weight="bold" font-family="'Helvetica Neue', Helvetica, Arial-Unicode, Arial, Sans-serif">from the Noun Project</text></svg>